<?xml version="1.0" standalone="no"?>
<!DOCTYPE svg PUBLIC "-//W3C//DTD SVG 20010904//EN"
 "http://www.w3.org/TR/2001/REC-SVG-20010904/DTD/svg10.dtd">
<svg version="1.0" xmlns="http://www.w3.org/2000/svg"
 width="785.000000pt" height="155.000000pt" viewBox="0 0 785.000000 155.000000"
 preserveAspectRatio="xMidYMid meet">

<g transform="translate(0.000000,155.000000) scale(0.100000,-0.100000)"
fill="#FF0000" stroke="none">
<path d="M1086 1266 c-27 -110 -226 -980 -224 -981 2 -2 62 10 133 25 72 15
155 33 186 39 l57 12 17 97 c25 144 16 132 94 132 l67 0 34 -117 35 -118 90
-8 c50 -4 118 -6 152 -5 l62 3 -159 430 c-87 237 -163 437 -168 445 -6 10 -60
23 -173 42 -204 33 -196 33 -203 4z m314 -533 c0 -9 -25 -10 -92 -6 -51 3 -95
7 -97 9 -4 3 44 257 56 298 4 13 26 -31 69 -135 35 -85 63 -159 64 -166z"/>
<path d="M3997 1279 c-142 -34 -285 -171 -339 -327 -19 -55 -23 -88 -23 -182
0 -108 2 -119 31 -180 98 -203 316 -304 555 -256 290 59 459 282 406 537 -31
151 -116 272 -230 329 -69 34 -177 60 -249 60 -36 0 -48 4 -48 15 0 17 -41 19
-103 4z m103 -389 c0 -5 22 -10 49 -10 92 0 151 -67 151 -173 0 -112 -58 -177
-158 -177 -67 0 -109 18 -150 64 -38 44 -46 70 -40 141 5 60 36 114 85 146 30
20 63 25 63 9z"/>
<path d="M5037 1269 c-155 -53 -278 -189 -322 -355 -22 -82 -21 -209 0 -276
77 -230 316 -356 575 -304 352 72 511 378 355 685 -72 143 -245 240 -427 241
-36 0 -48 4 -48 15 0 22 -62 19 -133 -6z m133 -379 c0 -5 19 -10 43 -10 126 0
197 -137 137 -267 -28 -64 -69 -85 -152 -80 -117 7 -179 68 -179 172 0 71 31
137 79 170 38 26 72 33 72 15z"/>
<path d="M2027 1246 c-106 -19 -217 -54 -217 -69 -1 -24 74 -922 77 -926 4 -6
233 81 239 90 2 4 -3 63 -13 130 l-18 122 24 16 c13 9 42 26 63 39 l39 23 91
-190 c50 -105 96 -191 101 -191 11 0 367 252 367 260 0 3 -19 18 -43 35 -23
16 -102 74 -175 127 l-132 99 40 50 c81 102 93 253 27 326 -11 13 -45 32 -76
44 -72 27 -278 35 -394 15z m257 -198 c25 -36 20 -83 -13 -121 -27 -30 -137
-95 -145 -86 -12 13 -55 153 -50 161 12 18 128 67 161 68 22 0 37 -7 47 -22z"/>
<path d="M7375 1253 c-255 -21 -416 -78 -458 -160 -59 -115 -7 -182 180 -238
204 -61 267 -98 279 -160 21 -114 -267 -108 -402 9 l-39 34 -33 -62 c-18 -33
-54 -101 -80 -150 l-47 -88 45 -39 c66 -57 154 -96 254 -114 242 -42 447 4
571 129 70 71 97 131 103 233 12 221 -101 334 -367 363 -124 14 -131 16 -131
46 0 63 107 71 268 20 22 -7 22 -6 22 88 l0 96 -62 -2 c-35 -1 -81 -3 -103 -5z"/>
<path d="M6540 1201 l-185 -47 -5 -187 -5 -186 -114 213 -113 213 -117 -35
c-64 -19 -134 -40 -156 -46 l-40 -12 -7 -184 c-3 -102 -9 -255 -11 -340 l-6
-155 137 -44 c75 -24 143 -46 149 -48 10 -3 13 45 15 210 l3 214 215 -275
c118 -150 216 -270 217 -265 5 15 243 1015 243 1019 0 9 -44 0 -220 -45z"/>
<path d="M2810 1034 l0 -207 120 8 120 7 0 -296 c0 -223 3 -296 12 -296 6 0
74 12 150 27 134 26 138 28 138 53 0 14 -16 147 -34 295 -19 149 -32 273 -28
276 4 3 48 14 97 23 50 9 114 21 143 27 l52 10 0 120 c0 88 -3 119 -12 119 -7
0 -175 9 -373 20 -198 11 -366 20 -372 20 -10 0 -13 -48 -13 -206z"/>
<path d="M443 1201 c-193 -72 -323 -262 -323 -476 0 -181 85 -334 226 -406 64
-32 74 -34 168 -34 82 0 112 4 158 23 64 26 178 98 178 113 0 5 -25 65 -56
132 -31 67 -65 142 -76 165 l-20 44 -24 -35 c-46 -68 -152 -96 -223 -59 -72
36 -96 114 -67 214 33 115 120 167 201 119 20 -12 40 -19 44 -16 11 6 124 196
119 199 -23 20 -70 30 -153 33 -80 3 -110 0 -152 -16z"/>
</g>
</svg>
